<svg width="25" height="26" viewBox="0 0 25 26" fill="none" xmlns="http://www.w3.org/2000/svg">
<path fill-rule="evenodd" clip-rule="evenodd" d="M3.19824 5.45337L15.5029 5.4436L15.8936 5.58032C16.1084 5.65356 16.3965 5.79517 16.5283 5.88306C16.665 5.97583 16.875 6.16138 17.0068 6.2981C17.1338 6.42993 17.2998 6.66431 17.3779 6.81079C17.4561 6.95728 17.5586 7.21118 17.6074 7.37231C17.6611 7.56763 17.7002 7.92896 17.749 9.20337L19.5459 8.00708C20.9229 7.08911 21.4014 6.79126 21.6211 6.73267C21.8066 6.67896 22.0117 6.65942 22.2412 6.67407C22.4756 6.68872 22.6807 6.74243 22.8955 6.84009C23.1055 6.93774 23.291 7.06958 23.457 7.25024C23.6084 7.41138 23.7598 7.63599 23.9502 8.10474V18.4075L23.8281 18.7004C23.7598 18.8762 23.6084 19.1008 23.457 19.262C23.291 19.4426 23.1055 19.5745 22.8955 19.6721C22.6807 19.7698 22.4756 19.8235 22.2412 19.8381C22.0117 19.8528 21.8066 19.8333 21.6211 19.7795C21.4014 19.7209 20.9229 19.4231 17.749 17.3088L17.7197 18.0803C17.7002 18.5833 17.6611 18.9446 17.6074 19.1399C17.5586 19.301 17.4561 19.5549 17.3779 19.7014C17.2998 19.8479 17.1289 20.0872 16.9922 20.2288C16.8604 20.3655 16.6309 20.5559 16.4893 20.6487C16.3525 20.7366 16.0693 20.8684 15.5029 21.0686H9.375C3.34961 21.0686 3.24219 21.0637 2.9541 20.9661C2.79297 20.9124 2.53418 20.8 2.37305 20.7122C2.2168 20.6243 1.96289 20.4338 1.81152 20.2825C1.66016 20.1311 1.46973 19.8772 1.38184 19.7209C1.29883 19.5598 1.18652 19.301 1.1377 19.1399C1.05469 18.8616 1.0498 18.5442 1.0498 13.2561C1.0498 7.94849 1.05469 7.65063 1.14258 7.37231C1.19141 7.21118 1.27441 6.99146 1.32813 6.88403C1.38184 6.77661 1.50879 6.5813 1.60645 6.45435C1.7041 6.32251 1.91406 6.11743 2.0752 5.99536C2.23633 5.87329 2.42188 5.75122 2.49023 5.72192C2.55859 5.69751 2.74414 5.62427 2.90527 5.56079L3.19824 5.45337ZM3.14941 7.8313V18.6858L3.4668 18.9739H15.2832L15.6006 18.6858V7.8313L15.2832 7.5481H3.4668L3.14941 7.8313ZM17.7295 11.718V14.7942L21.875 17.553C21.875 10.8928 21.8701 8.95923 21.8652 8.96411C21.8555 8.96411 20.9229 9.58423 19.79 10.3411L17.7295 11.718ZM6.24023 9.1106C7.29492 9.10571 7.55371 9.12036 7.70508 9.18384C7.80762 9.2229 7.93945 9.30591 8.00293 9.3645C8.06641 9.4231 8.16406 9.55981 8.21777 9.66724C8.28613 9.79907 8.3252 9.95532 8.3252 10.1311C8.3252 10.3313 8.29102 10.4583 8.20312 10.6194C8.13965 10.7366 7.98828 10.9026 7.66113 11.1321L6.35742 11.1467C5.53711 11.1565 4.99023 11.1467 4.87305 11.1125C4.77051 11.0833 4.61914 11.0002 4.53613 10.927C4.45312 10.8538 4.34082 10.7024 4.28223 10.595C4.21875 10.468 4.18457 10.3069 4.18457 10.1311C4.18457 9.95532 4.21875 9.79907 4.28711 9.66724C4.34082 9.55981 4.43848 9.4231 4.50195 9.3645C4.56543 9.30591 4.69238 9.22778 4.79004 9.18384C4.92676 9.12524 5.20508 9.1106 6.24023 9.1106Z" fill="#579BC3"/>
</svg>
