<svg width="24" height="25" viewBox="0 0 24 25" fill="none" xmlns="http://www.w3.org/2000/svg">
<path fill-rule="evenodd" clip-rule="evenodd" d="M11.8968 2.72954C14.9062 2.72485 15.825 2.73891 16.5093 2.79516C16.9828 2.83735 17.5546 2.89829 17.789 2.93579C18.0187 2.97329 18.3984 3.05766 18.6328 3.12329C18.8625 3.18891 19.2656 3.3436 19.5234 3.47485C19.7812 3.60141 20.1281 3.81704 20.2921 3.95297C20.4609 4.08891 20.7 4.32797 20.8218 4.48266C20.9484 4.63735 21.1546 4.97485 21.2812 5.23266C21.4125 5.49047 21.5671 5.87954 21.6281 6.09985C21.689 6.32016 21.7734 6.69985 21.8156 6.9436C21.8531 7.18735 21.9187 7.79204 21.9609 8.27954C22.0171 8.9686 22.0312 9.96704 22.0312 12.7327C22.0312 15.4748 22.0171 16.5061 21.9609 17.2092C21.9234 17.7108 21.8578 18.3248 21.8156 18.5686C21.7734 18.8123 21.689 19.192 21.6281 19.4123C21.5671 19.6327 21.4125 20.0217 21.2812 20.2795C21.1546 20.5373 20.939 20.8842 20.8031 21.0483C20.6671 21.217 20.4281 21.4561 20.2734 21.578C20.1187 21.7045 19.7812 21.9108 19.5234 22.0373C19.2656 22.1686 18.8765 22.3233 18.6562 22.3842C18.4359 22.4452 18.0562 22.5295 17.8125 22.5717C17.5687 22.6092 16.9781 22.6748 16.5 22.717C15.8203 22.7733 14.85 22.7873 12 22.7873C9.14996 22.7873 8.17965 22.7733 7.49996 22.717C7.02183 22.6748 6.43121 22.6092 6.18746 22.5717C5.94371 22.5295 5.56402 22.4452 5.34371 22.3842C5.1234 22.3233 4.73433 22.1686 4.47652 22.0373C4.21871 21.9108 3.88121 21.7045 3.72652 21.578C3.57183 21.4561 3.33277 21.217 3.19683 21.0483C3.0609 20.8842 2.84527 20.5373 2.71871 20.2795C2.58746 20.0217 2.43277 19.6327 2.37183 19.4123C2.3109 19.192 2.22652 18.8123 2.18433 18.5686C2.14215 18.3248 2.07652 17.7014 2.03433 17.1858C1.9734 16.3983 1.96402 15.6248 1.98277 12.3108C1.99683 9.91547 2.02496 8.19047 2.05777 7.90454C2.0859 7.64672 2.14215 7.22485 2.18433 6.96704C2.22652 6.70922 2.3109 6.32016 2.37183 6.09985C2.43277 5.87954 2.58746 5.49047 2.71871 5.23266C2.84527 4.97485 3.0609 4.62797 3.19683 4.46391C3.33277 4.29516 3.57183 4.0561 3.72652 3.93422C3.88121 3.80766 4.21871 3.60141 4.47652 3.47485C4.73433 3.3436 5.1234 3.18891 5.34371 3.12797C5.56402 3.06704 5.95308 2.98266 6.2109 2.94047C6.46871 2.8936 7.00777 2.83266 7.40621 2.79985C7.92652 2.75297 9.20621 2.73422 11.8921 2.72954H11.8968ZM6.59996 4.89985C6.35152 4.94204 5.98121 5.02641 5.77965 5.09204C5.58277 5.15297 5.32496 5.26547 5.20777 5.34047C5.09058 5.41547 4.9359 5.53735 4.8609 5.61235C4.7859 5.68735 4.66402 5.84204 4.58902 5.95922C4.51402 6.07641 4.40152 6.33422 4.34058 6.53579C4.27496 6.73266 4.19058 7.10297 4.1484 7.3561C4.1109 7.60454 4.05933 8.19047 4.0359 8.65454C4.01246 9.1186 3.98902 10.0045 3.98902 10.6233C3.98902 11.242 4.00308 11.7623 4.02183 11.7811C4.04527 11.7998 4.21871 11.6639 4.4109 11.4811C4.60308 11.2983 4.94996 10.9936 5.18433 10.8108C5.41402 10.6233 5.77496 10.3608 5.98121 10.2248C6.18746 10.0936 6.50152 9.91079 6.68433 9.82641C6.86246 9.74204 7.1484 9.62485 7.31715 9.57329C7.4859 9.51704 7.75777 9.45141 7.92652 9.4186C8.10465 9.39047 8.43277 9.3811 8.7234 9.39516C8.99527 9.40922 9.35152 9.46547 9.52027 9.51235C9.68902 9.55922 9.9609 9.66235 10.1296 9.73266C10.2984 9.80766 10.6125 9.97641 10.8328 10.103C11.0531 10.2342 11.4656 10.5202 11.7468 10.7405C12.0515 10.9748 12.8296 11.7014 13.6546 12.5217C14.9671 13.8202 15.0562 13.8998 15.1406 13.8342C15.1875 13.7967 15.4171 13.628 15.6421 13.4592C15.8718 13.2952 16.2468 13.0561 16.4812 12.9342C16.7109 12.8123 17.0484 12.6623 17.2312 12.6014C17.414 12.5405 17.7046 12.4608 17.8875 12.428C18.0984 12.3905 18.389 12.3764 18.7078 12.3952C18.9796 12.4092 19.3453 12.4655 19.5281 12.517C19.7109 12.5686 19.8937 12.6202 19.9359 12.6342C20.0156 12.6623 20.0203 12.5686 20.0203 11.1061C20.0156 10.2483 19.9968 9.1561 19.9734 8.67797C19.95 8.19985 19.8984 7.60922 19.8609 7.36547C19.8234 7.12172 19.7437 6.77016 19.6875 6.59204C19.6312 6.41391 19.5515 6.18891 19.5046 6.09985C19.4578 6.01079 19.3546 5.85141 19.2703 5.74829C19.1906 5.64516 19.0031 5.4811 18.8578 5.38266C18.7125 5.28422 18.4265 5.15297 18.225 5.08735C18.0281 5.02641 17.6578 4.94204 17.4046 4.89985C17.1562 4.86235 16.5703 4.81079 16.1062 4.78735C15.6421 4.76391 13.7343 4.74516 11.864 4.74985C9.99371 4.74985 8.14683 4.7686 7.76246 4.79204C7.3734 4.81079 6.85308 4.85766 6.59996 4.89985ZM7.63121 11.5983C7.4484 11.6827 7.15777 11.8467 6.98902 11.9592C6.82027 12.0717 6.50621 12.3108 6.2859 12.4889C6.06558 12.6717 5.4609 13.2436 4.9359 13.7592L3.98902 14.7014C3.98902 15.7186 4.01246 16.3936 4.0359 16.8577C4.05933 17.3217 4.1109 17.9077 4.1484 18.1561C4.19058 18.4092 4.27496 18.7795 4.34058 18.9764C4.40152 19.178 4.51402 19.4358 4.58902 19.553C4.66402 19.6702 4.7859 19.8248 4.8609 19.8998C4.9359 19.9748 5.09058 20.0967 5.20777 20.1717C5.32496 20.2467 5.58277 20.3592 5.77965 20.4202C5.98121 20.4858 6.35152 20.5702 6.59996 20.6124C6.85308 20.6498 7.43902 20.7014 7.90308 20.7248C8.36715 20.7483 10.214 20.767 12.0046 20.767C13.7953 20.767 15.6421 20.7483 16.1062 20.7248C16.5703 20.7014 17.1562 20.6498 17.4046 20.6124C17.6578 20.5702 18.0281 20.4858 18.225 20.4249C18.4265 20.3592 18.7125 20.228 18.8578 20.1295C19.0031 20.0311 19.1906 19.867 19.2703 19.7639C19.3546 19.6608 19.4578 19.5014 19.5046 19.4123C19.5515 19.3233 19.6312 19.103 19.6875 18.9202C19.7437 18.7373 19.8234 18.3905 19.8609 18.1467C19.8984 17.903 19.95 17.3123 19.9734 16.8342C19.9968 16.3561 20.0156 15.742 20.0203 15.4608C20.0203 14.9639 20.0203 14.9592 19.889 14.8702C19.8187 14.8233 19.6359 14.7202 19.4812 14.6405C19.3265 14.5655 19.1062 14.4764 18.989 14.4436C18.8718 14.4155 18.6421 14.3873 18.4734 14.392C18.3 14.392 18.0562 14.4295 17.9109 14.4811C17.7703 14.5327 17.5781 14.6077 17.489 14.6545C17.4 14.7014 17.189 14.8327 17.0203 14.9405C16.8515 15.053 16.664 15.1889 16.5984 15.2405L16.4812 15.3295C17.5968 16.4545 17.8875 16.7827 17.9343 16.8905C17.9718 16.9889 18.0046 17.153 18.0046 17.2561C18.0046 17.3592 17.9718 17.5233 17.9296 17.617C17.8921 17.7155 17.8031 17.8561 17.7328 17.9264C17.6625 18.0014 17.5265 18.0998 17.4281 18.1514C17.325 18.203 17.1562 18.2405 17.0203 18.2405C16.889 18.2405 16.7062 18.2077 16.6078 18.1655C16.4859 18.1186 15.6375 17.2983 13.8093 15.4795C12.3656 14.0405 10.9828 12.6998 10.739 12.4983C10.4953 12.2967 10.1437 12.0342 9.96558 11.917C9.78277 11.7998 9.50621 11.6498 9.34214 11.5748C9.18277 11.5045 8.92965 11.4295 8.77496 11.4061C8.62496 11.3873 8.38121 11.3873 8.23589 11.4061C8.09058 11.4295 7.81871 11.5139 7.63121 11.5983ZM15.989 6.76079C16.1296 6.7561 16.35 6.78422 16.4812 6.81704C16.6078 6.85454 16.8281 6.9436 16.9687 7.0186C17.1046 7.0936 17.3203 7.25766 17.4421 7.38891C17.564 7.51547 17.7187 7.73579 17.7843 7.86704C17.8546 8.00297 17.9343 8.2561 17.9671 8.42954C18.0093 8.67797 18.0093 8.82329 17.9671 9.07641C17.939 9.25454 17.8546 9.52172 17.7843 9.66235C17.714 9.80297 17.55 10.028 17.4187 10.1592C17.2828 10.2952 17.0484 10.4639 16.8562 10.5577C16.5421 10.7077 16.5093 10.717 16.0125 10.717C15.5062 10.717 15.4828 10.7123 15.1406 10.5436C14.9156 10.4311 14.714 10.2905 14.5687 10.1358C14.4468 10.0045 14.2781 9.7561 14.1937 9.57797C14.0531 9.28266 14.0437 9.23579 14.0437 8.74829C14.0437 8.25141 14.0484 8.2186 14.2031 7.90454C14.2921 7.72172 14.4609 7.47797 14.5781 7.36079C14.6953 7.2436 14.8875 7.0936 15.0046 7.02329C15.1218 6.95766 15.3328 6.8686 15.4734 6.8311C15.614 6.7936 15.8484 6.76079 15.989 6.76079Z" fill="#579BC3"/>
</svg>
