<svg width="24" height="25" viewBox="0 0 24 25" fill="none" xmlns="http://www.w3.org/2000/svg">
<path fill-rule="evenodd" clip-rule="evenodd" d="M11.9531 1.97955C12.1219 1.97955 12.4359 2.00768 12.6562 2.04518C12.8765 2.08737 13.2 2.15768 13.3828 2.20455C13.5656 2.25612 13.8562 2.36393 14.039 2.44362C14.2219 2.5233 14.5359 2.70143 14.7422 2.83737C14.9578 2.98268 15.2859 3.26862 15.5156 3.50768C15.75 3.75612 16.0031 4.08424 16.125 4.29987C16.2422 4.50612 16.3828 4.78737 16.439 4.92799C16.4953 5.06862 16.5797 5.32174 16.6265 5.49049C16.7062 5.77174 16.7109 6.0858 16.7109 13.7639L16.5797 14.1858C16.5047 14.4155 16.3594 14.7764 16.2515 14.9827C16.139 15.1889 15.9562 15.4842 15.839 15.6389C15.7172 15.7936 15.4781 16.0561 15.3 16.2202C15.1219 16.3889 14.8406 16.6139 14.6719 16.7217C14.5031 16.8296 14.2219 16.9842 14.039 17.0686C13.8562 17.1483 13.5094 17.2749 13.2656 17.3405C12.8672 17.453 12.7406 17.4671 12.0234 17.4671C11.3953 17.4671 11.1515 17.4483 10.875 17.378C10.6828 17.3311 10.364 17.228 10.1719 17.153C9.97967 17.078 9.65623 16.9139 9.44998 16.7967C9.24842 16.6749 8.92498 16.4264 8.72342 16.2436C8.52654 16.0608 8.26404 15.7796 8.13748 15.6108C8.0156 15.4467 7.83279 15.1514 7.73435 14.9592C7.6406 14.7671 7.51404 14.4717 7.46248 14.303C7.40623 14.1342 7.3406 13.8717 7.31248 13.7171C7.28435 13.5342 7.2656 12.1327 7.2656 9.75612C7.2656 7.37955 7.28435 5.97799 7.31248 5.79518C7.3406 5.64049 7.40623 5.37799 7.46248 5.20924C7.51404 5.04049 7.6406 4.74518 7.73435 4.55299C7.83279 4.3608 8.0156 4.06549 8.13748 3.90143C8.26404 3.73268 8.52654 3.45143 8.72342 3.26862C8.92498 3.0858 9.24842 2.83737 9.44998 2.71549C9.65623 2.5983 9.97967 2.43424 10.1719 2.35924C10.364 2.28424 10.6828 2.1858 10.875 2.14362C11.0672 2.10143 11.3203 2.04987 11.4375 2.02643C11.5547 2.00299 11.7844 1.98424 11.9531 1.97955ZM10.4156 3.89205C10.1203 4.04205 9.94217 4.1733 9.64217 4.4733C9.35623 4.75924 9.21092 4.94674 9.07967 5.20924C8.98592 5.40143 8.87342 5.68737 8.83592 5.84205C8.77498 6.08112 8.7656 6.66705 8.7656 9.75612C8.7656 12.8452 8.77498 13.4311 8.83592 13.6702C8.87342 13.8249 8.98592 14.1108 9.07967 14.303C9.21092 14.5608 9.35623 14.753 9.63279 15.0296C9.93748 15.3389 10.0922 15.4467 10.4531 15.6249C10.6969 15.7467 11.0531 15.878 11.2359 15.9155C11.4234 15.9577 11.7703 15.9905 12 15.9905C12.2297 15.9905 12.5765 15.9577 12.7594 15.9155C12.9469 15.878 13.2937 15.7514 13.5234 15.6389C13.7859 15.5077 14.0578 15.3296 14.2453 15.1608C14.414 15.0108 14.6437 14.7436 14.7656 14.5608C14.8828 14.378 15.0328 14.0967 15.0937 13.928L15.2109 13.6233C15.2344 6.6483 15.225 6.0858 15.164 5.84205C15.1265 5.68737 15.014 5.40143 14.9203 5.20924C14.789 4.95143 14.6437 4.75455 14.3672 4.48268C14.0578 4.16862 13.9125 4.06549 13.5469 3.88737C13.3031 3.76549 12.9469 3.63424 12.7594 3.59674C12.5719 3.55455 12.2203 3.52174 11.9625 3.52643C11.6859 3.52643 11.3672 3.56393 11.1562 3.61549C10.964 3.66237 10.6312 3.78893 10.4156 3.89205ZM2.83592 3.00612C2.91092 3.00612 3.07029 3.05299 3.18279 3.10924C3.30467 3.17487 3.42185 3.28268 3.4781 3.38112C3.54373 3.50299 3.56248 3.6108 3.5531 3.80299C3.53904 4.00455 3.49685 4.11237 3.37498 4.29518C3.28592 4.42643 3.14529 4.67955 3.06092 4.85768C2.97654 5.0358 2.87342 5.3358 2.83592 5.51393C2.79842 5.69205 2.7656 6.02487 2.7656 6.25455C2.7656 6.47955 2.79842 6.81705 2.8406 7.00455C2.88279 7.18737 2.98592 7.49205 3.0656 7.67018C3.14998 7.8483 3.29529 8.11549 3.39373 8.25612C3.53435 8.46705 3.56717 8.55612 3.56717 8.7483C3.56717 8.91237 3.53435 9.02955 3.45935 9.14674C3.39373 9.24518 3.25779 9.35768 3.11717 9.4233C2.90154 9.53112 2.86404 9.5358 2.67185 9.47955C2.55467 9.44674 2.39998 9.36705 2.32967 9.29674C2.25467 9.22643 2.10467 9.02018 1.99217 8.84205C1.87967 8.66393 1.72498 8.36393 1.64529 8.1858C1.57029 8.00768 1.46717 7.6983 1.4156 7.50612C1.36404 7.31393 1.29373 6.95299 1.2656 6.70924C1.21404 6.32487 1.21404 6.18893 1.28435 5.70143C1.32654 5.39205 1.42498 4.95612 1.50467 4.72643C1.57967 4.50143 1.69685 4.20612 1.76248 4.07487C1.83279 3.93893 1.98279 3.68112 2.10467 3.50299C2.26404 3.25924 2.36717 3.15612 2.50779 3.09049C2.61092 3.04362 2.75623 3.00612 2.83592 3.00612ZM21.164 3.00612C21.239 3.00612 21.389 3.04362 21.4922 3.09049C21.6328 3.15612 21.7359 3.25924 21.8953 3.50299C22.0172 3.68112 22.1672 3.93893 22.2375 4.07487C22.3031 4.20612 22.4203 4.50143 22.4953 4.73112C22.5703 4.95612 22.6687 5.38268 22.7156 5.67799C22.7859 6.14205 22.7906 6.27799 22.739 6.66237C22.7062 6.90612 22.6359 7.27643 22.5844 7.48268C22.5328 7.68893 22.4297 8.00768 22.3547 8.1858C22.275 8.36393 22.1203 8.66393 22.0078 8.84205C21.8953 9.02018 21.7453 9.22643 21.6703 9.29674C21.6 9.36705 21.4453 9.44674 21.3281 9.47955C21.1359 9.5358 21.0984 9.53112 20.8828 9.4233C20.7422 9.35768 20.6062 9.24518 20.5406 9.14674C20.4656 9.02955 20.4328 8.91237 20.4328 8.7483C20.4328 8.55612 20.4656 8.46705 20.6062 8.25612C20.7047 8.11549 20.85 7.8483 20.9344 7.67018C21.014 7.49205 21.1172 7.18737 21.1594 7.00455C21.2015 6.81705 21.2344 6.47955 21.2344 6.25455C21.2344 6.02487 21.2015 5.69205 21.164 5.51393C21.1265 5.3358 21.0234 5.0358 20.939 4.85768C20.8547 4.67955 20.714 4.42643 20.625 4.29518C20.5031 4.11237 20.4609 4.00455 20.4469 3.80299C20.4375 3.6108 20.4562 3.50299 20.5219 3.38112C20.5781 3.28268 20.6953 3.17487 20.8172 3.11393C20.9297 3.05299 21.0844 3.00612 21.164 3.00612ZM5.47029 11.0217C5.58279 11.0217 5.74685 11.0592 5.8406 11.1061C5.93904 11.1483 6.05623 11.2514 6.11248 11.3264C6.20623 11.4577 6.21092 11.5467 6.23904 12.8967C6.26717 14.153 6.28123 14.3733 6.37029 14.7249C6.42654 14.9452 6.54373 15.2686 6.6281 15.4514C6.71248 15.6342 6.87185 15.9155 6.98435 16.0842C7.09685 16.253 7.35935 16.5577 7.5656 16.7639C7.77654 16.9702 8.08123 17.2374 8.24998 17.3592C8.41873 17.4764 8.7656 17.678 9.02342 17.8092C9.28123 17.9358 9.69373 18.1092 9.93748 18.1842C10.1812 18.2639 10.5844 18.3624 10.8281 18.4046C11.1281 18.4608 11.5172 18.4842 12.0234 18.4842C12.5906 18.4842 12.8953 18.4608 13.2656 18.3858C13.5375 18.3342 13.9359 18.2264 14.1562 18.1561C14.3765 18.0811 14.714 17.9452 14.9062 17.8514C15.0984 17.7577 15.4265 17.5702 15.6328 17.4342C15.839 17.2983 16.1906 17.0077 16.4109 16.7874C16.6359 16.5671 16.9172 16.2296 17.0437 16.0374C17.1656 15.8452 17.325 15.5546 17.4 15.3952C17.4703 15.2311 17.5781 14.9264 17.6297 14.7155C17.7187 14.378 17.7328 14.1389 17.7609 12.8967C17.789 11.5467 17.7937 11.4577 17.8875 11.3264C17.9437 11.2514 18.0609 11.1483 18.1594 11.1061C18.2531 11.0592 18.4172 11.0217 18.5297 11.0217C18.6562 11.0217 18.7828 11.0546 18.8859 11.1249C18.975 11.1858 19.0922 11.3077 19.1437 11.3967C19.2375 11.5514 19.2422 11.6311 19.2422 12.9436C19.2375 14.0921 19.2234 14.3967 19.1531 14.7483C19.1062 14.978 19.0031 15.3483 18.9281 15.5686C18.8484 15.7889 18.7219 16.0936 18.6469 16.2483C18.5672 16.403 18.375 16.7217 18.2156 16.9514C18.0609 17.1811 17.7187 17.5842 17.4609 17.8421C17.1515 18.1561 16.8094 18.4374 16.4531 18.6717C16.1578 18.8686 15.7265 19.1217 15.4922 19.2296C15.2625 19.3374 14.8594 19.4967 14.6015 19.5858C14.3437 19.6702 13.9219 19.7827 13.664 19.8296C13.4062 19.8811 13.0969 19.9327 12.75 19.9749V21.9905L13.9828 22.0046C15.164 22.0139 15.2156 22.0186 15.389 22.1217C15.4875 22.178 15.6047 22.3046 15.6562 22.4124C15.7078 22.5155 15.75 22.6655 15.75 22.7405C15.75 22.8155 15.7265 22.9374 15.6984 23.0124C15.6703 23.0827 15.6047 23.1905 15.5484 23.2467C15.4922 23.3077 15.3656 23.4014 15.2719 23.4483C15.1031 23.5327 14.9484 23.5374 12 23.5374C9.05154 23.5374 8.89685 23.5327 8.73279 23.4483C8.63435 23.4014 8.50779 23.3077 8.45154 23.2467C8.39529 23.1905 8.32967 23.0827 8.30154 23.0124C8.27342 22.9374 8.24998 22.8108 8.24998 22.7311C8.24998 22.6467 8.29685 22.4921 8.35779 22.3936C8.41404 22.2905 8.53592 22.1639 8.62498 22.1124C8.77967 22.0186 8.87342 22.0139 11.25 21.9905V19.9749L11.0297 19.9467C10.9031 19.9327 10.5844 19.8764 10.3125 19.8249C10.0406 19.7733 9.60935 19.6561 9.35154 19.5671C9.09373 19.478 8.69529 19.3139 8.46092 19.2061C8.23123 19.0936 7.80935 18.8452 7.52342 18.6577C7.2281 18.4561 6.82498 18.1327 6.58123 17.8889C6.34685 17.6592 6.0281 17.2983 5.8781 17.0921C5.72342 16.8858 5.5031 16.5249 5.38592 16.2952C5.26404 16.0655 5.11404 15.7046 5.04373 15.4983C4.9781 15.2921 4.88904 14.9639 4.84685 14.7717C4.79529 14.5139 4.76717 14.0452 4.74842 13.0374C4.72967 11.6592 4.72967 11.6546 4.83748 11.4436C4.89842 11.3264 5.0156 11.1858 5.10467 11.1296C5.21248 11.0592 5.33904 11.0217 5.47029 11.0217ZM5.3906 3.99049C5.4281 3.99049 5.53592 4.00924 5.62498 4.03268C5.71404 4.05612 5.85935 4.15455 5.94373 4.24362C6.02342 4.33737 6.11248 4.48268 6.13592 4.56705C6.15935 4.64674 6.16404 4.79205 6.14529 4.88112C6.12654 4.97018 6.04685 5.15299 5.96717 5.27955C5.88748 5.4108 5.78435 5.64049 5.74217 5.79518C5.68123 5.99674 5.66717 6.17018 5.68592 6.40455C5.70467 6.67643 5.74685 6.80299 5.92967 7.15455C6.10779 7.48737 6.15467 7.61862 6.14998 7.78737C6.14529 7.90455 6.1031 8.06393 6.05623 8.13893C6.00935 8.21862 5.89685 8.33112 5.80779 8.38737C5.67654 8.48112 5.60154 8.49518 5.3906 8.48112C5.22185 8.47174 5.08123 8.42955 4.98279 8.35924C4.89842 8.30299 4.74373 8.11549 4.6406 7.94205C4.53748 7.76393 4.39685 7.45455 4.33123 7.2483C4.25623 7.01393 4.19998 6.71393 4.18592 6.45143C4.16717 6.14674 4.18123 5.91705 4.23748 5.63112C4.28435 5.4108 4.39217 5.0733 4.48592 4.88112C4.57498 4.68893 4.70623 4.44987 4.77654 4.34674C4.85623 4.23424 4.98279 4.13112 5.11404 4.07955C5.22654 4.03268 5.3531 3.99049 5.3906 3.99049ZM18.5859 3.99518C18.6375 3.99518 18.7687 4.03268 18.8812 4.08424C18.9937 4.1358 19.1437 4.26237 19.2234 4.37955C19.3078 4.48737 19.439 4.72643 19.5234 4.90455C19.6125 5.08737 19.7156 5.4108 19.7625 5.63112C19.8187 5.91705 19.8328 6.14674 19.814 6.45143C19.8 6.71393 19.7437 7.01393 19.6687 7.2483C19.6031 7.45455 19.4625 7.76393 19.3594 7.94205C19.2562 8.11549 19.1015 8.30299 19.0219 8.35924C18.9187 8.42955 18.7781 8.47174 18.6094 8.48112C18.3984 8.49518 18.3234 8.48112 18.1922 8.38737C18.1031 8.33112 17.9906 8.21862 17.9437 8.13893C17.8969 8.06393 17.8547 7.90455 17.85 7.78737C17.8469 7.64674 17.8781 7.51393 17.9437 7.38893C18 7.2858 18.1031 7.08424 18.1734 6.94362C18.2531 6.77487 18.3047 6.57799 18.3187 6.38112C18.3328 6.17487 18.314 5.98268 18.2578 5.79518C18.2156 5.64049 18.1172 5.42018 18.0422 5.30299C17.9719 5.1858 17.8875 5.03112 17.864 4.95143C17.8359 4.86237 17.8406 4.73112 17.8687 4.59987C17.8922 4.48268 17.9719 4.31862 18.0422 4.23424C18.1125 4.14987 18.2437 4.0608 18.3328 4.04205C18.4219 4.01862 18.5344 3.99518 18.5859 3.99518Z" fill="#579BC3"/>
</svg>
